<mxfile host="app.diagrams.net" modified="2021-01-26T13:55:33.368Z" agent="5.0 (Windows NT 10.0; Win64; x64) AppleWebKit/537.36 (KHTML, like Gecko) Chrome/87.0.4280.141 Safari/537.36" etag="tRD7QnjAL85u1hHv5aJO" version="14.2.7" type="github">
  <diagram id="YTepsOwVZcsm9tDHX60J" name="Page-1">
    <mxGraphModel dx="1038" dy="548" grid="1" gridSize="10" guides="1" tooltips="1" connect="1" arrows="1" fold="1" page="1" pageScale="1" pageWidth="850" pageHeight="1100" math="0" shadow="0">
      <root>
        <mxCell id="0" />
        <mxCell id="1" parent="0" />
        <mxCell id="Dw992XbvhlY088Q-7n17-1" value="PatientQueue" style="swimlane;fontStyle=1;align=center;verticalAlign=top;childLayout=stackLayout;horizontal=1;startSize=26;horizontalStack=0;resizeParent=1;resizeParentMax=0;resizeLast=0;collapsible=1;marginBottom=0;strokeColor=#000000;fillColor=#97D077;" vertex="1" parent="1">
          <mxGeometry x="265" y="60" width="320" height="190" as="geometry" />
        </mxCell>
        <mxCell id="Dw992XbvhlY088Q-7n17-2" value="- hospitalName: String&#xa;- doctor: Doctor&#xa;- department: String&#xa;- queue: Arraylist&lt;Patient&gt;" style="text;strokeColor=none;fillColor=none;align=left;verticalAlign=top;spacingLeft=4;spacingRight=4;overflow=hidden;rotatable=0;points=[[0,0.5],[1,0.5]];portConstraint=eastwest;" vertex="1" parent="Dw992XbvhlY088Q-7n17-1">
          <mxGeometry y="26" width="320" height="74" as="geometry" />
        </mxCell>
        <mxCell id="Dw992XbvhlY088Q-7n17-3" value="" style="line;strokeWidth=1;fillColor=none;align=left;verticalAlign=middle;spacingTop=-1;spacingLeft=3;spacingRight=3;rotatable=0;labelPosition=right;points=[];portConstraint=eastwest;" vertex="1" parent="Dw992XbvhlY088Q-7n17-1">
          <mxGeometry y="100" width="320" height="8" as="geometry" />
        </mxCell>
        <mxCell id="Dw992XbvhlY088Q-7n17-4" value="+ PatientQueue(hospitalName: String, doctor: Doctor)&#xa;+ addPatient(patient: Patient): void&#xa;+ removePatient(patient: Patient): void&#xa;+ printQueue(): void" style="text;strokeColor=none;fillColor=none;align=left;verticalAlign=top;spacingLeft=4;spacingRight=4;overflow=hidden;rotatable=0;points=[[0,0.5],[1,0.5]];portConstraint=eastwest;" vertex="1" parent="Dw992XbvhlY088Q-7n17-1">
          <mxGeometry y="108" width="320" height="82" as="geometry" />
        </mxCell>
        <mxCell id="Dw992XbvhlY088Q-7n17-10" value="hospital" style="shape=folder;fontStyle=1;spacingTop=10;tabWidth=40;tabHeight=14;tabPosition=left;html=1;fillColor=#97D077;" vertex="1" parent="1">
          <mxGeometry x="90" y="10" width="70" height="50" as="geometry" />
        </mxCell>
      </root>
    </mxGraphModel>
  </diagram>
</mxfile>
